HIERARCHY
ROOT Hips
{
	OFFSET 0.000000 0.000000 0.000000
	CHANNELS 6 Xposition Yposition Zposition Xrotation Yrotation Zrotation
	JOINT Chest
	{
		OFFSET 0.000000 0.009282 11.569106
		CHANNELS 3 Xrotation Yrotation Zrotation
		JOINT Chest2
		{
			OFFSET 0.000000 -0.016863 9.269641
			CHANNELS 3 Xrotation Yrotation Zrotation
			JOINT Chest3
			{
				OFFSET 0.000000 0.000000 8.374491
				CHANNELS 3 Xrotation Yrotation Zrotation
				JOINT Chest4
				{
					OFFSET 0.000000 0.000000 8.374493
					CHANNELS 3 Xrotation Yrotation Zrotation
					JOINT Neck
					{
						OFFSET 0.000000 -0.000001 12.152554
						CHANNELS 3 Xrotation Yrotation Zrotation
						JOINT Head
						{
							OFFSET 0.000000 -0.040100 7.802319
							CHANNELS 3 Xrotation Yrotation Zrotation
							End Site
							{
								OFFSET 0.000000 -0.020946 14.853096
							}
						}
					}
					JOINT RightCollar
					{
						OFFSET -2.894404 0.000000 6.791374
						CHANNELS 3 Xrotation Yrotation Zrotation
						JOINT RightShoulder
						{
							OFFSET -13.574684 0.000000 0.000000
							CHANNELS 3 Xrotation Yrotation Zrotation
							JOINT RightElbow
							{
								OFFSET -23.923903 0.000000 0.000000
								CHANNELS 3 Xrotation Yrotation Zrotation
								JOINT RightWrist
								{
									OFFSET -19.846718 -0.012765 0.000000
									CHANNELS 3 Xrotation Yrotation Zrotation
									End Site
									{
										OFFSET -14.973145 0.000000 0.000000
									}
								}
							}
						}
					}
					JOINT LeftCollar
					{
						OFFSET 2.894404 0.000000 6.791374
						CHANNELS 3 Xrotation Yrotation Zrotation
						JOINT LeftShoulder
						{
							OFFSET 13.574684 0.000000 0.000000
							CHANNELS 3 Xrotation Yrotation Zrotation
							JOINT LeftElbow
							{
								OFFSET 23.923903 0.000000 0.000000
								CHANNELS 3 Xrotation Yrotation Zrotation
								JOINT LeftWrist
								{
									OFFSET 19.846718 -0.012765 0.000000
									CHANNELS 3 Xrotation Yrotation Zrotation
									End Site
									{
										OFFSET 14.973145 0.000000 0.000000
									}
								}
							}
						}
					}
				}
			}
		}
	}
	JOINT RightHip
	{
		OFFSET -9.469263 -0.004642 0.045487
		CHANNELS 3 Xrotation Yrotation Zrotation
		JOINT RightKnee
		{
			OFFSET 0.000000 -0.002666 -40.478676
			CHANNELS 3 Xrotation Yrotation Zrotation
			JOINT RightAnkle
			{
				OFFSET 0.000000 -0.049110 -35.224068
				CHANNELS 3 Xrotation Yrotation Zrotation
				JOINT RightToe
				{
					OFFSET 0.000000 -12.539530 -6.151390
					CHANNELS 3 Xrotation Yrotation Zrotation
					End Site
					{
						OFFSET 0.000000 -5.044995 -1.291870
					}
				}
			}
		}
	}
	JOINT LeftHip
	{
		OFFSET 9.469263 -0.004642 0.045487
		CHANNELS 3 Xrotation Yrotation Zrotation
		JOINT LeftKnee
		{
			OFFSET 0.000000 -0.002666 -40.478676
			CHANNELS 3 Xrotation Yrotation Zrotation
			JOINT LeftAnkle
			{
				OFFSET 0.000000 -0.049110 -35.224068
				CHANNELS 3 Xrotation Yrotation Zrotation
				JOINT LeftToe
				{
					OFFSET 0.000000 -12.539530 -6.151390
					CHANNELS 3 Xrotation Yrotation Zrotation
					End Site
					{
						OFFSET 0.000000 -5.044995 -1.291870
					}
				}
			}
		}
	}
}
MOTION
Frames: 5
Frame Time: 0.016667
-11.430483 -6.736113 83.125511 0.531167 1.768123 -108.295566 3.438760 0.480981 2.114642 1.529870 0.197321 0.958619 1.529870 0.197321 0.958617 1.147716 0.145592 0.719461 15.001976 -1.529745 -4.074016 -8.306355 -1.254745 -7.982154 -1.132559 -6.951215 -1.758710 11.609880 -38.689214 8.056040 69.354301 -3.399704 86.372496 31.945338 -53.086112 -6.434727 6.618435 5.468088 -7.616275 13.118605 30.102215 -20.592650 73.080907 14.146487 -87.621765 24.591162 42.612594 22.809980 4.112004 0.498129 -0.685940 1.793534 -1.162525 -9.662159 -3.616311 0.875728 2.125207 0.022129 -0.005895 -0.006191 5.710250 1.277053 2.912213 -0.315549 -0.870775 -0.595474 -3.862661 0.065081 1.297372 0.002391 -0.011063 0.000250 
-11.436524 -6.748640 83.124847 0.540886 1.770938 -108.312846 3.450761 0.476417 2.113839 1.535336 0.195459 0.958406 1.535336 0.195459 0.958401 1.151809 0.144188 0.719298 14.998322 -1.530688 -4.078174 -8.313051 -1.254692 -7.990107 -1.150693 -6.957103 -1.760021 11.613750 -38.679317 8.062672 69.347935 -3.397876 86.379627 31.941585 -53.093058 -6.431446 6.612981 5.469488 -7.614314 13.131399 30.095900 -20.602685 73.062984 14.143967 -87.621130 24.604565 42.611733 22.812936 4.112641 0.499844 -0.670929 1.802957 -1.157969 -9.661536 -3.617139 0.865294 2.135460 0.022219 -0.006885 -0.005260 5.719125 1.279251 2.905021 -0.314888 -0.870367 -0.574191 -3.866290 0.058295 1.287141 0.002909 -0.010933 0.000079 
-11.441612 -6.761440 83.124603 0.551861 1.775544 -108.331240 3.462225 0.470882 2.113109 1.540542 0.192958 0.958150 1.540544 0.192958 0.958148 1.155712 0.142305 0.719103 14.995510 -1.528623 -4.081597 -8.318024 -1.249494 -7.995582 -1.153628 -6.961921 -1.757278 11.606565 -38.668829 8.063856 69.341993 -3.394771 86.392126 31.931367 -53.094103 -6.437542 6.627153 5.462048 -7.608744 13.112079 30.101395 -20.610794 73.060648 14.136807 -87.624121 24.615442 42.613707 22.817869 4.114491 0.499968 -0.659228 1.812628 -1.154864 -9.659657 -3.616654 0.857447 2.137079 0.021349 -0.007779 -0.004883 5.728006 1.281099 2.913285 -0.312794 -0.867679 -0.560742 -3.869550 0.049990 1.276298 0.003313 -0.011270 0.000298 
-11.446789 -6.772971 83.124405 0.560890 1.780828 -108.348472 3.471968 0.465784 2.111479 1.544617 0.191059 0.957521 1.544616 0.191059 0.957515 1.158765 0.140876 0.718627 14.994200 -1.523398 -4.084094 -8.320047 -1.238997 -7.998161 -1.150972 -6.963546 -1.760888 11.601474 -38.660834 8.064575 69.336727 -3.397389 86.402009 31.932801 -53.096620 -6.435702 6.620408 5.466379 -7.604015 13.106105 30.098229 -20.612427 73.065211 14.133367 -87.629722 24.622330 42.618342 22.822316 4.117402 0.502826 -0.656806 1.821680 -1.153013 -9.652825 -3.616347 0.849351 2.137977 0.020473 -0.007908 -0.004879 5.738018 1.284241 2.929536 -0.313250 -0.864511 -0.553011 -3.871028 0.043704 1.280022 0.003138 -0.012821 0.001006 
-11.451004 -6.787350 83.124245 0.568990 1.785860 -108.364209 3.476553 0.462524 2.109717 1.546723 0.189506 0.956649 1.546724 0.189507 0.956650 1.160340 0.139710 0.717974 14.995040 -1.517914 -4.083985 -8.318126 -1.229123 -7.995904 -1.141535 -6.967451 -1.762249 11.581889 -38.662122 8.048181 69.343045 -3.397022 86.405738 31.934935 -53.092143 -6.428366 6.619176 5.471823 -7.599453 13.112187 30.092406 -20.615531 73.063777 14.130962 -87.629326 24.644417 42.629430 22.817908 4.114778 0.510283 -0.653609 1.838860 -1.156923 -9.645675 -3.619593 0.843981 2.133051 0.019860 -0.008910 -0.006329 5.746694 1.287293 2.947095 -0.313381 -0.860000 -0.548913 -3.872850 0.034962 1.264437 0.003553 -0.012691 0.001772 
